<svg width="32" height="32" viewBox="0 0 32 32" fill="none" xmlns="http://www.w3.org/2000/svg">
<g clip-path="url(#clip0_27_103)">
<path d="M16 32C7.1648 32 0 24.8352 0 16C0 7.1648 7.1648 0 16 0C24.8352 0 32 7.1648 32 16C32 24.8352 24.8352 32 16 32Z" fill="#3B579D"/>
<path d="M20.1601 32V19.6064H24.3201L24.9441 14.7776H20.1601V11.6928C20.1601 10.2944 20.5473 9.3408 22.5537 9.3408H25.1105V5.024C24.6689 4.9664 23.1489 4.83521 21.3825 4.83521C17.6961 4.83521 15.1713 7.08481 15.1713 11.2192V14.7808H11.0017V19.6096H15.1713V32H20.1601Z" fill="white"/>
</g>
<defs>
<clipPath id="clip0_27_103">
<rect width="32" height="32" fill="white"/>
</clipPath>
</defs>
</svg>
