<svg width="33" height="33" viewBox="0 0 33 33" fill="none" xmlns="http://www.w3.org/2000/svg">
<g clip-path="url(#clip0_24_74)">
<path d="M16.5 33C7.3887 33 0 25.6113 0 16.5C0 7.3887 7.3887 0 16.5 0C25.6113 0 33 7.3887 33 16.5C33 25.6113 25.6113 33 16.5 33Z" fill="url(#paint0_linear_24_74)"/>
<path d="M16.5001 7.26661C19.5064 7.26661 19.8628 7.27651 21.0508 7.33261C22.1497 7.38211 22.747 7.56691 23.143 7.72201C23.6677 7.92661 24.0439 8.17081 24.4366 8.56351C24.8293 8.95621 25.0735 9.33241 25.2781 9.85711C25.4332 10.2531 25.6147 10.8504 25.6675 11.9493C25.7203 13.1373 25.7335 13.4937 25.7335 16.5C25.7335 19.5063 25.7236 19.8627 25.6675 21.0507C25.618 22.1496 25.4332 22.7469 25.2781 23.1429C25.0735 23.6676 24.8293 24.0438 24.4366 24.4365C24.0439 24.8292 23.6677 25.0734 23.143 25.278C22.747 25.4331 22.1497 25.6146 21.0508 25.6674C19.8628 25.7202 19.5064 25.7334 16.5001 25.7334C13.4938 25.7334 13.1374 25.7235 11.9494 25.6674C10.8505 25.6179 10.2532 25.4331 9.85719 25.278C9.33249 25.0734 8.95629 24.8292 8.56359 24.4365C8.17089 24.0438 7.92669 23.6676 7.72209 23.1429C7.56699 22.7469 7.38549 22.1496 7.33269 21.0507C7.27989 19.8627 7.26669 19.5063 7.26669 16.5C7.26669 13.4937 7.27659 13.1373 7.33269 11.9493C7.38219 10.8504 7.56699 10.2531 7.72209 9.85711C7.92669 9.33241 8.17089 8.95621 8.56359 8.56351C8.95629 8.17081 9.33249 7.92661 9.85719 7.72201C10.2532 7.56691 10.8505 7.38541 11.9494 7.33261C13.1374 7.27651 13.4938 7.26661 16.5001 7.26661ZM16.5001 5.23711C13.441 5.23711 13.0582 5.25031 11.857 5.30641C10.6591 5.36251 9.84069 5.55061 9.12129 5.83111C8.38209 6.11491 7.75179 6.50101 7.12809 7.12801C6.50109 7.75501 6.11829 8.38201 5.82789 9.12451C5.55069 9.84061 5.35929 10.659 5.30319 11.8602C5.24709 13.0614 5.23389 13.4442 5.23389 16.5033C5.23389 19.5624 5.24709 19.9452 5.30319 21.1464C5.35929 22.3443 5.54739 23.1627 5.82789 23.8821C6.11499 24.618 6.50109 25.2483 7.12809 25.872C7.75509 26.499 8.38209 26.8818 9.12459 27.1722C9.84069 27.4494 10.6591 27.6408 11.8603 27.6969C13.0615 27.753 13.4443 27.7662 16.5034 27.7662C19.5625 27.7662 19.9453 27.753 21.1465 27.6969C22.3444 27.6408 23.1628 27.4527 23.8822 27.1722C24.6181 26.8851 25.2484 26.499 25.8721 25.872C26.4991 25.245 26.8819 24.618 27.1723 23.8755C27.4495 23.1594 27.6409 22.341 27.697 21.1398C27.7531 19.9386 27.7663 19.5558 27.7663 16.4967C27.7663 13.4376 27.7531 13.0548 27.697 11.8536C27.6409 10.6557 27.4528 9.83731 27.1723 9.11791C26.8852 8.38201 26.4991 7.75171 25.8721 7.12801C25.2451 6.50101 24.6181 6.11821 23.8756 5.82781C23.1595 5.55061 22.3411 5.35921 21.1399 5.30311C19.942 5.25031 19.5592 5.23711 16.5001 5.23711Z" fill="white"/>
<path d="M16.5 10.7151C13.3056 10.7151 10.7151 13.3056 10.7151 16.5C10.7151 19.6944 13.3056 22.2849 16.5 22.2849C19.6944 22.2849 22.2849 19.6944 22.2849 16.5C22.2849 13.3056 19.6944 10.7151 16.5 10.7151ZM16.5 20.2554C14.4276 20.2554 12.7446 18.5757 12.7446 16.5C12.7446 14.4243 14.4276 12.7446 16.5 12.7446C18.5724 12.7446 20.2554 14.4243 20.2554 16.5C20.2554 18.5757 18.5724 20.2554 16.5 20.2554Z" fill="white"/>
<path d="M22.5127 11.8404C23.2599 11.8404 23.8657 11.2346 23.8657 10.4874C23.8657 9.74016 23.2599 9.1344 22.5127 9.1344C21.7654 9.1344 21.1597 9.74016 21.1597 10.4874C21.1597 11.2346 21.7654 11.8404 22.5127 11.8404Z" fill="white"/>
</g>
<defs>
<linearGradient id="paint0_linear_24_74" x1="4.83273" y1="28.1673" x2="28.1673" y2="4.83273" gradientUnits="userSpaceOnUse">
<stop stop-color="#FFD521"/>
<stop offset="0.0551048" stop-color="#FFD020"/>
<stop offset="0.1241" stop-color="#FEC01E"/>
<stop offset="0.2004" stop-color="#FCA71B"/>
<stop offset="0.2821" stop-color="#FA8316"/>
<stop offset="0.3681" stop-color="#F85510"/>
<stop offset="0.4563" stop-color="#F51E09"/>
<stop offset="0.5" stop-color="#F30005"/>
<stop offset="0.5035" stop-color="#F20007"/>
<stop offset="0.5966" stop-color="#E1003B"/>
<stop offset="0.6879" stop-color="#D30067"/>
<stop offset="0.7757" stop-color="#C70088"/>
<stop offset="0.8589" stop-color="#BF00A0"/>
<stop offset="0.9357" stop-color="#BB00AF"/>
<stop offset="1" stop-color="#B900B4"/>
</linearGradient>
<clipPath id="clip0_24_74">
<rect width="33" height="33" fill="white"/>
</clipPath>
</defs>
</svg>
